<?xml version="1.0" standalone="no"?>
<!DOCTYPE svg PUBLIC "-//W3C//DTD SVG 20010904//EN"
 "http://www.w3.org/TR/2001/REC-SVG-20010904/DTD/svg10.dtd">
<svg version="1.0" xmlns="http://www.w3.org/2000/svg"
 width="512.000000pt" height="512.000000pt" viewBox="0 0 512.000000 512.000000"
 preserveAspectRatio="xMidYMid meet">
<metadata>
Created by potrace 1.14, written by Peter Selinger 2001-2017
</metadata>
<g transform="translate(0.000000,512.000000) scale(0.100000,-0.100000)"
fill="#000000" stroke="none">
<path d="M2398 5115 c-1 -1 -28 -6 -58 -9 -234 -28 -495 -120 -703 -248 -135
-83 -308 -229 -409 -345 -77 -90 -217 -299 -232 -348 -3 -11 -34 -35 -68 -54
-321 -175 -579 -442 -741 -766 -136 -273 -191 -522 -183 -830 5 -166 13 -227
47 -371 91 -384 328 -745 647 -987 76 -58 252 -167 269 -167 4 0 24 -28 42
-63 146 -267 354 -490 618 -660 171 -110 417 -204 638 -243 110 -19 393 -27
485 -14 30 4 75 11 100 15 273 39 584 179 810 363 188 153 354 351 454 544 22
42 38 59 67 72 47 21 262 165 309 206 236 212 367 388 488 660 47 106 106 304
117 395 3 22 8 51 11 65 13 57 12 367 -1 460 -15 100 -17 108 -34 180 -7 25
-14 54 -16 64 -8 35 -37 120 -62 181 -156 388 -454 717 -825 910 -24 12 -43
32 -53 55 -43 100 -164 269 -280 390 -267 281 -586 451 -988 526 -70 14 -438
29 -449 19z m393 -560 c163 -34 306 -92 442 -182 37 -25 65 -48 62 -51 -3 -4
-23 -7 -43 -8 -122 -4 -291 -36 -437 -83 -95 -31 -204 -74 -235 -93 -15 -10
-33 -5 -99 25 -79 37 -231 91 -281 101 -14 3 -56 12 -95 20 -66 15 -133 23
-233 30 -23 2 -45 5 -48 8 -8 9 134 98 221 139 173 81 347 117 546 113 64 -1
154 -10 200 -19z m-881 -789 c19 -2 47 -7 63 -10 15 -3 38 -8 52 -11 l26 -6
-20 -27 c-10 -15 -29 -37 -41 -50 -33 -35 -143 -201 -175 -265 -27 -53 -36
-62 -105 -98 -83 -44 -225 -143 -289 -200 l-40 -37 -11 51 c-33 155 -31 367 6
528 15 64 19 72 49 84 29 13 175 40 250 48 36 3 186 -1 235 -7z m1694 -17 c50
-11 97 -22 105 -23 8 -1 15 -9 17 -17 1 -8 5 -27 9 -44 28 -122 36 -196 36
-305 0 -69 -2 -134 -4 -145 -3 -11 -8 -43 -11 -70 -11 -81 -17 -84 -73 -36
-60 54 -208 153 -284 191 -52 27 -61 36 -99 108 -44 83 -148 233 -200 290 -17
19 -29 36 -26 39 9 9 81 22 156 29 41 4 76 8 78 9 11 9 221 -9 296 -26z m-923
-396 c13 -16 12 -17 -3 -4 -17 13 -22 21 -14 21 2 0 10 -8 17 -17z m-1877
-128 c8 -92 20 -173 33 -230 3 -11 9 -38 13 -60 15 -67 70 -226 106 -305 l35
-74 -31 -64 c-85 -179 -157 -471 -155 -635 0 -20 -3 -37 -6 -37 -9 0 -75 100
-118 180 -46 86 -93 220 -117 335 -17 82 -24 313 -12 391 22 136 62 262 119
377 33 64 119 200 124 195 2 -2 6 -34 9 -73z m3572 3 c234 -356 264 -826 77
-1203 -41 -81 -123 -208 -130 -201 -3 3 -7 24 -9 48 -15 168 -18 191 -53 333
-22 90 -65 212 -106 297 l-27 57 40 88 c55 124 109 301 126 413 13 83 22 168
25 228 1 21 8 14 57 -60z m-1704 -262 c42 -3 116 -14 165 -26 84 -19 89 -22
91 -48 1 -15 6 -40 12 -57 39 -127 41 -371 3 -535 -9 -41 -17 -79 -17 -85 -1
-11 -54 -30 -110 -39 -21 -4 -41 -8 -45 -10 -11 -7 -152 -18 -225 -18 -107 1
-194 13 -308 43 -44 11 -43 7 -74 179 -14 76 -21 320 -10 338 2 4 7 27 10 52
7 50 32 149 40 157 18 19 304 63 366 57 14 -2 60 -5 102 -8z m1098 -880 c0 -2
-8 -10 -17 -17 -16 -13 -17 -12 -4 4 13 16 21 21 21 13z m-2332 -81 c59 -50
204 -147 270 -182 67 -34 76 -43 103 -95 16 -32 57 -99 92 -150 63 -93 81
-117 125 -166 l23 -26 -23 -9 c-71 -27 -329 -41 -428 -23 -19 4 -44 8 -55 10
-47 7 -131 29 -141 37 -12 10 -28 78 -48 209 -7 42 -9 287 -2 298 2 4 6 30 9
57 3 28 9 58 13 68 7 19 7 19 62 -28z m2317 -25 c30 -199 27 -329 -12 -493 -9
-40 -16 -75 -15 -79 3 -12 -121 -42 -223 -54 -87 -11 -278 -8 -338 6 -29 6
-62 13 -75 16 -21 4 -19 9 41 87 83 107 118 160 165 246 37 68 43 74 128 122
93 53 214 138 273 190 40 34 45 30 56 -41z m-1143 -1011 c111 -57 336 -128
458 -145 102 -14 177 -21 203 -19 41 2 33 -10 -30 -51 -107 -68 -197 -113
-303 -148 -130 -43 -213 -57 -356 -61 -97 -2 -138 1 -254 19 -76 12 -222 62
-313 107 -61 31 -193 114 -201 127 -2 4 15 7 37 8 197 3 494 78 677 171 33 17
34 17 82 -8z"/>
</g>
</svg>
