<svg width="280" height="118" viewBox="0 0 280 118" fill="none" xmlns="http://www.w3.org/2000/svg">
<g clip-path="url(#clip0_3021_3107)">
<path d="M127.826 49.885L127.798 84.1686C127.487 94.1174 123.05 102.992 116.126 109.182C109.965 114.665 101.825 118 92.9224 118H92.3289C86.959 118 81.8435 116.785 77.2933 114.637C65.3948 108.984 57.1704 96.8872 57.1704 82.8402V35.3576C57.1704 28.857 51.9136 23.6 45.4132 23.6C38.9129 23.6 33.6561 28.857 33.6561 35.3576L33.6278 84.1686C33.3452 94.1174 28.8797 102.992 21.9554 109.182C15.7942 114.665 7.65464 118 -1.24803 118H-1.84154C-21.2578 118 -37 102.257 -37 82.8402V11.8141C-37 5.31353 -31.7149 0.0282566 -25.2146 0.0282566C-18.8273 0.0282566 -13.627 5.14395 -13.4291 11.475V82.6424C-13.4291 89.143 -8.17232 94.4 -1.67197 94.4C4.82839 94.4 10.0852 89.143 10.0852 82.6424L10.1135 33.8314C10.4244 23.8826 14.8616 15.0079 21.7859 8.81821C27.9471 3.33509 36.0866 0 44.9893 0H45.5828C50.9809 0 56.1247 1.21532 60.7032 3.41987C72.5452 9.07257 80.7413 21.1693 80.7413 35.1598V82.6424C80.7413 89.143 85.9981 94.4 92.4984 94.4C98.9988 94.4 104.256 89.143 104.256 82.6424V49.8568H127.826V49.885Z" fill="white"/>
<path d="M279.85 94.3717V117.972C274.763 117.859 269.959 116.672 265.663 114.608C253.764 108.984 245.54 96.8589 245.54 82.812V35.3293C245.54 28.8287 240.283 23.5717 233.783 23.5717C227.282 23.5717 222.025 28.8287 222.025 35.3293L221.997 84.1404C221.715 94.0891 217.249 102.964 210.325 109.154C204.164 114.637 196.052 117.972 187.121 117.972H186.528C181.158 117.972 176.071 116.756 171.492 114.608C159.679 109.012 151.482 97.0285 151.369 83.1229V35.3293C151.369 28.8287 146.113 23.5717 139.612 23.5717C133.112 23.5717 127.855 28.8287 127.855 35.3293V49.8568H104.312V33.8314C104.595 23.8826 109.061 15.0079 115.985 8.81821C122.146 3.33509 130.286 0 139.188 0H139.782C145.18 0 150.324 1.21532 154.902 3.41987C166.659 9.0443 174.827 20.9715 174.94 34.8489V82.6424C174.94 89.143 180.197 94.4 186.697 94.4C193.198 94.4 198.455 89.143 198.455 82.6424L198.483 33.8314C198.766 23.8826 203.231 15.0079 210.155 8.81821C216.316 3.33509 224.456 0 233.359 0H233.952C239.379 0 244.494 1.21532 249.073 3.41987C260.886 9.10083 269.082 21.1693 269.082 35.188V82.6707C269.082 88.8038 273.831 93.863 279.85 94.3717Z" fill="#010202"/>
<path d="M127.827 49.7996C127.827 56.3002 122.542 61.5854 116.041 61.5854C109.541 61.5854 104.256 56.3002 104.256 49.7996C104.256 43.299 109.541 38.0137 116.041 38.0137C122.542 38.0419 127.827 43.299 127.827 49.7996Z" fill="#E53E51"/>
</g>
<defs>
<clipPath id="clip0_3021_3107">
<rect width="280" height="118" fill="white"/>
</clipPath>
</defs>
</svg>
