<svg width="194" height="91" viewBox="0 0 194 91" fill="none" xmlns="http://www.w3.org/2000/svg">
<g clip-path="url(#clip0_1210_7549)">
<path d="M142.135 45.0846V84.0794C142.135 87.6471 139.246 90.5331 135.674 90.5331C132.171 90.5331 129.304 87.738 129.213 84.2612V45.1755C129.213 41.6078 126.324 38.7218 122.753 38.7218C119.181 38.7218 116.292 41.6078 116.292 45.1755V71.2175C116.292 81.8524 107.648 90.4876 97.0015 90.4876H96.8195C86.1504 90.4876 77.5287 81.8524 77.5287 71.2175V51.7882C77.5287 48.2205 80.4178 45.3346 83.9893 45.3346C87.4926 45.3346 90.3589 48.1297 90.4499 51.6065V71.1266C90.4499 74.6943 93.339 77.5802 96.9105 77.5802C100.482 77.5802 103.371 74.6943 103.371 71.1266V45.0846C103.371 34.4497 112.016 25.8145 122.662 25.8145H122.844C133.49 25.8145 142.135 34.4269 142.135 45.0846Z" fill="white"/>
<path d="M58.1657 90.5094C54.5941 90.5094 51.7051 87.6234 51.7051 84.0557V6.47517C51.7051 2.90746 54.5941 0.0214844 58.1657 0.0214844C61.7372 0.0214844 64.6263 2.90746 64.6263 6.47517V84.0557C64.6263 87.6234 61.7372 90.5094 58.1657 90.5094Z" fill="white"/>
<path d="M12.9212 25.8365V6.4527C12.9212 2.885 10.0321 -0.000976562 6.4606 -0.000976562C2.88907 -0.000976562 0 2.885 0 6.4527V71.3758C0 81.9426 8.57622 90.5096 19.1543 90.5096H19.632C30.2101 90.5096 38.7864 81.9426 38.7864 71.3758V45.1066C38.7864 34.4717 30.1419 25.8365 19.4955 25.8365H12.9212ZM19.3818 77.6023C15.8103 77.6023 12.9212 74.7163 12.9212 71.1486V45.1975C12.9212 41.6298 15.8103 38.7438 19.3818 38.7438C22.9533 38.7438 25.8424 41.6298 25.8424 45.1975V71.1259C25.8424 74.7163 22.9533 77.6023 19.3818 77.6023Z" fill="white"/>
<path d="M194.004 45.268L193.981 32.3607C193.981 28.7929 191.092 25.907 187.521 25.907C183.949 25.907 181.06 28.7929 181.06 32.3607V45.268C181.06 48.8357 178.171 51.7217 174.6 51.7217C171.028 51.7217 168.139 48.8357 168.139 45.268V6.59138C168.139 3.02367 165.25 0.137695 161.678 0.137695C158.107 0.137695 155.218 3.02367 155.218 6.59138V84.0583C155.218 87.626 158.107 90.512 161.678 90.512C165.25 90.512 168.139 87.626 168.139 84.0583V71.1282C168.139 67.5605 171.028 64.6745 174.6 64.6745C178.171 64.6745 181.06 67.5605 181.06 71.1282V84.0356C181.06 87.6033 183.949 90.4892 187.521 90.4892C191.092 90.4892 193.981 87.6033 193.981 84.0356L194.004 71.1282C194.004 66.1516 192.116 61.6295 189.022 58.1981C192.116 54.7668 194.004 50.2446 194.004 45.268Z" fill="white"/>
<path d="M83.9626 38.7218C80.391 38.7218 77.502 35.8358 77.502 32.2681C77.502 28.7004 80.391 25.8145 83.9626 25.8145C87.5341 25.8145 90.4231 28.7004 90.4231 32.2681C90.4459 35.8358 87.5341 38.7218 83.9626 38.7218Z" fill="black"/>
</g>
<defs>
<clipPath id="clip0_1210_7549">
<rect width="194" height="90.5333" fill="white"/>
</clipPath>
</defs>
</svg>
